<svg xmlns="http://www.w3.org/2000/svg" xmlns:xlink="http://www.w3.org/1999/xlink" width="745" height="426" fill="none" aria-labelledby="title desc" role="img" viewBox="0 0 745 426"><title id="title">stefashkaa contribution CRT monitor</title><desc id="desc">CRT-style contribution chart generated from GitHub contribution calendar data.</desc><defs><linearGradient id="bg" x1="0" x2="1" y1="0" y2="1"><stop offset="0%" stop-color="#010203"/><stop offset="60%" stop-color="#081322"/><stop offset="100%" stop-color="#0c1f35"/></linearGradient><linearGradient id="barGradient" x1="0" x2="0" y1="0" y2="1"><stop offset="0%" stop-color="#f7ff73" stop-opacity=".95"/><stop offset="100%" stop-color="#8fff00" stop-opacity=".45"/></linearGradient><linearGradient id="areaGradient" x1="0" x2="0" y1="0" y2="1"><stop offset="0%" stop-color="#8fff00" stop-opacity=".18"/><stop offset="100%" stop-color="#8fff00" stop-opacity="0"/></linearGradient><filter id="phosphorGlow" width="140%" height="140%" x="-20%" y="-20%"><feGaussianBlur result="blur" stdDeviation="3.2"/><feMerge><feMergeNode in="blur"/><feMergeNode in="SourceGraphic"/></feMerge></filter><filter id="noiseFilter"><feTurbulence id="noiseTurbulence" baseFrequency="2.4" numOctaves="1" result="noise" seed="131" stitchTiles="stitch" type="fractalNoise"/><animate xlink:href="#noiseTurbulence" attributeName="baseFrequency" dur="0.85s" repeatCount="indefinite" values="2.4;2.208;2.520;2.4"/><feColorMatrix in="noise" type="matrix" values="1 0 0 0 0 0 1 0 0 0 0 0 1 0 0 0 0 0 1 0"/></filter><radialGradient id="vignette" cx="50%" cy="50%" r="75%"><stop offset="60%" stop-color="rgba(0,0,0,0)"/><stop offset="100%" stop-color="rgba(0,0,0,1)"/></radialGradient><pattern id="scanPattern" width="3" height="3" patternUnits="userSpaceOnUse"><animateTransform attributeName="patternTransform" dur="1.8s" repeatCount="indefinite" type="translate" values="0 0; 0 6"/><rect width="3" height="1" fill="transparent"/><rect width="3" height="1" y="1" fill="#8fff00"/></pattern></defs><style>.month{font:600 10px ui-monospace,SFMono-Regular,Menlo,Monaco,Consolas,&quot;Liberation Mono&quot;,monospace;fill:#b8db89;letter-spacing:.1em}.dash-label,.footer{fill:#b8db89;letter-spacing:.04em}.footer{font:600 8.5px ui-monospace,SFMono-Regular,Menlo,Monaco,Consolas,&quot;Liberation Mono&quot;,monospace;opacity:.9}.dash-label{font:600 7.2px ui-monospace,SFMono-Regular,Menlo,Monaco,Consolas,&quot;Liberation Mono&quot;,monospace;opacity:.88}</style><rect width="745" height="426" fill="url(#bg)" rx="14"/><rect width="745" height="426" fill="#f7ff73" filter="url(#noiseFilter)" opacity=".15" rx="14"/><rect width="745" height="426" fill="url(#scanPattern)" opacity=".16" rx="14"/><rect width="745" height="426" fill="url(#vignette)" opacity=".16" rx="14"/><text x="28" y="32" class="month">APR</text><text x="80" y="32" class="month">MAY</text><text x="132" y="32" class="month">JUN</text><text x="197" y="32" class="month">JUL</text><text x="249" y="32" class="month">AUG</text><text x="314" y="32" class="month">SEP</text><text x="366" y="32" class="month">OCT</text><text x="418" y="32" class="month">NOV</text><text x="483" y="32" class="month">DEC</text><text x="535" y="32" class="month">JAN</text><text x="587" y="32" class="month">FEB</text><text x="639" y="32" class="month">MAR</text><text x="704" y="32" class="month">APR</text><path fill="url(#areaGradient)" d="M32.2 216v-5.593h13v.993h39v-8.205h13v8.205h13v-1.548h13v1.548h13v-3.767h13v3.767h39v-24.295h13v-7.767h13V211.4h13v-30.397h13v-17.754h13V174.9h13v-45.493h13V174.9h13v2.22h13V157.7h13v42.165h13v-6.103h13v-3.884h13v4.994h13v6.102h13v-8.322h13V174.9h13v12.205h13V173.79h13v10.542h13v-3.33h13v-38.835h13v7.212h13v37.172h13v-1.11h13V164.36h13v12.76h13v23.302h13v-33.843h13v5.548h13v23.856h13v1.665h13V176.01h13v-37.172h13v1.11h13V71.153h13V53.4h13v31.068h13v20.528h13v-13.87h13V216Z"/><g shape-rendering="crispEdges"><title>2025-04-06: 9 contributions | active days: 4 | peak day: 3</title><polygon fill="#8fff00" points="35.5,211.5068493150685 37.5,209.5068493150685 37.5,213.5068493150685 35.5,215.5068493150685" opacity=".289"/><rect width="7" height="4" x="28.5" y="211.507" fill="url(#barGradient)" opacity=".466" rx="0"/><polygon fill="#f7ff73" points="28.5,211.5068493150685 35.5,211.5068493150685 37.5,209.5068493150685 30.5,209.5068493150685" opacity=".646"/><line x1="30.5" x2="37.5" y1="209.507" y2="209.507" stroke="#f7ff73" stroke-opacity=".686" stroke-width="1"/></g><g shape-rendering="crispEdges"><title>2025-04-13: 5 contributions | active days: 2 | peak day: 3</title><polygon fill="#8fff00" points="48.5,212.5 50.5,210.5 50.5,214.5 48.5,216.5" opacity=".262"/><rect width="7" height="4" x="41.5" y="212.5" fill="url(#barGradient)" opacity=".423" rx="0"/><polygon fill="#f7ff73" points="41.5,212.5 48.5,212.5 50.5,210.5 43.5,210.5" opacity=".603"/><line x1="43.5" x2="50.5" y1="210.5" y2="210.5" stroke="#f7ff73" stroke-opacity=".643" stroke-width="1"/></g><g shape-rendering="crispEdges"><title>2025-04-20: 7 contributions | active days: 3 | peak day: 3</title><polygon fill="#8fff00" points="61.5,212.5 63.5,210.5 63.5,214.5 61.5,216.5" opacity=".275"/><rect width="7" height="4" x="54.5" y="212.5" fill="url(#barGradient)" opacity=".444" rx="0"/><polygon fill="#f7ff73" points="54.5,212.5 61.5,212.5 63.5,210.5 56.5,210.5" opacity=".624"/><line x1="56.5" x2="63.5" y1="210.5" y2="210.5" stroke="#f7ff73" stroke-opacity=".664" stroke-width="1"/></g><g shape-rendering="crispEdges"><title>2025-04-27: 0 contributions | active days: 0 | peak day: 0</title><polygon fill="#8fff00" points="74.5,212.5 76.5,210.5 76.5,214.5 74.5,216.5" opacity=".236"/><rect width="7" height="4" x="67.5" y="212.5" fill="url(#barGradient)" opacity=".38" rx="0"/><polygon fill="#f7ff73" points="67.5,212.5 74.5,212.5 76.5,210.5 69.5,210.5" opacity=".56"/><line x1="69.5" x2="76.5" y1="210.5" y2="210.5" stroke="#f7ff73" stroke-opacity=".6" stroke-width="1"/></g><g shape-rendering="crispEdges"><title>2025-05-04: 22 contributions | active days: 5 | peak day: 11</title><polygon fill="#8fff00" points="87.5,204.2945205479452 89.5,202.2945205479452 89.5,214.2945205479452 87.5,216.2945205479452" opacity=".302"/><rect width="7" height="12" x="80.5" y="204.295" fill="url(#barGradient)" opacity=".487" rx="0"/><polygon fill="#f7ff73" points="80.5,204.2945205479452 87.5,204.2945205479452 89.5,202.2945205479452 82.5,202.2945205479452" opacity=".667"/><line x1="82.5" x2="89.5" y1="202.295" y2="202.295" stroke="#f7ff73" stroke-opacity=".707" stroke-width="1"/></g><g shape-rendering="crispEdges"><title>2025-05-11: 6 contributions | active days: 3 | peak day: 3</title><polygon fill="#8fff00" points="100.5,212.5 102.5,210.5 102.5,214.5 100.5,216.5" opacity=".275"/><rect width="7" height="4" x="93.5" y="212.5" fill="url(#barGradient)" opacity=".444" rx="0"/><polygon fill="#f7ff73" points="93.5,212.5 100.5,212.5 102.5,210.5 95.5,210.5" opacity=".624"/><line x1="95.5" x2="102.5" y1="210.5" y2="210.5" stroke="#f7ff73" stroke-opacity=".664" stroke-width="1"/></g><g shape-rendering="crispEdges"><title>2025-05-18: 10 contributions | active days: 6 | peak day: 3</title><polygon fill="#8fff00" points="113.5,210.95205479452054 115.5,208.95205479452054 115.5,213.95205479452054 113.5,215.95205479452054" opacity=".315"/><rect width="7" height="5" x="106.5" y="210.952" fill="url(#barGradient)" opacity=".509" rx="0"/><polygon fill="#f7ff73" points="106.5,210.95205479452054 113.5,210.95205479452054 115.5,208.95205479452054 108.5,208.95205479452054" opacity=".689"/><line x1="108.5" x2="115.5" y1="208.952" y2="208.952" stroke="#f7ff73" stroke-opacity=".729" stroke-width="1"/></g><g shape-rendering="crispEdges"><title>2025-05-25: 7 contributions | active days: 2 | peak day: 5</title><polygon fill="#8fff00" points="126.5,212.5 128.5,210.5 128.5,214.5 126.5,216.5" opacity=".262"/><rect width="7" height="4" x="119.5" y="212.5" fill="url(#barGradient)" opacity=".423" rx="0"/><polygon fill="#f7ff73" points="119.5,212.5 126.5,212.5 128.5,210.5 121.5,210.5" opacity=".603"/><line x1="121.5" x2="128.5" y1="210.5" y2="210.5" stroke="#f7ff73" stroke-opacity=".643" stroke-width="1"/></g><g shape-rendering="crispEdges"><title>2025-06-01: 14 contributions | active days: 2 | peak day: 13</title><polygon fill="#8fff00" points="139.5,208.73287671232876 141.5,206.73287671232876 141.5,213.73287671232876 139.5,215.73287671232876" opacity=".262"/><rect width="7" height="7" x="132.5" y="208.733" fill="url(#barGradient)" opacity=".423" rx="0"/><polygon fill="#f7ff73" points="132.5,208.73287671232876 139.5,208.73287671232876 141.5,206.73287671232876 134.5,206.73287671232876" opacity=".603"/><line x1="134.5" x2="141.5" y1="206.733" y2="206.733" stroke="#f7ff73" stroke-opacity=".643" stroke-width="1"/></g><g shape-rendering="crispEdges"><title>2025-06-08: 0 contributions | active days: 0 | peak day: 0</title><polygon fill="#8fff00" points="152.5,212.5 154.5,210.5 154.5,214.5 152.5,216.5" opacity=".236"/><rect width="7" height="4" x="145.5" y="212.5" fill="url(#barGradient)" opacity=".38" rx="0"/><polygon fill="#f7ff73" points="145.5,212.5 152.5,212.5 154.5,210.5 147.5,210.5" opacity=".56"/><line x1="147.5" x2="154.5" y1="210.5" y2="210.5" stroke="#f7ff73" stroke-opacity=".6" stroke-width="1"/></g><g shape-rendering="crispEdges"><title>2025-06-15: 2 contributions | active days: 2 | peak day: 1</title><polygon fill="#8fff00" points="165.5,212.5 167.5,210.5 167.5,214.5 165.5,216.5" opacity=".262"/><rect width="7" height="4" x="158.5" y="212.5" fill="url(#barGradient)" opacity=".423" rx="0"/><polygon fill="#f7ff73" points="158.5,212.5 165.5,212.5 167.5,210.5 160.5,210.5" opacity=".603"/><line x1="160.5" x2="167.5" y1="210.5" y2="210.5" stroke="#f7ff73" stroke-opacity=".643" stroke-width="1"/></g><g shape-rendering="crispEdges"><title>2025-06-22: 2 contributions | active days: 1 | peak day: 2</title><polygon fill="#8fff00" points="178.5,212.5 180.5,210.5 180.5,214.5 178.5,216.5" opacity=".249"/><rect width="7" height="4" x="171.5" y="212.5" fill="url(#barGradient)" opacity=".401" rx="0"/><polygon fill="#f7ff73" points="171.5,212.5 178.5,212.5 180.5,210.5 173.5,210.5" opacity=".581"/><line x1="173.5" x2="180.5" y1="210.5" y2="210.5" stroke="#f7ff73" stroke-opacity=".621" stroke-width="1"/></g><g shape-rendering="crispEdges"><title>2025-06-29: 51 contributions | active days: 3 | peak day: 33</title><polygon fill="#8fff00" points="191.5,188.2054794520548 193.5,186.2054794520548 193.5,214.2054794520548 191.5,216.2054794520548" opacity=".315"/><rect width="7" height="28" x="184.5" y="188.205" fill="url(#barGradient)" opacity=".509" rx="0"/><polygon fill="#f7ff73" points="184.5,188.2054794520548 191.5,188.2054794520548 193.5,186.2054794520548 186.5,186.2054794520548" opacity=".689"/><line x1="186.5" x2="193.5" y1="186.205" y2="186.205" stroke="#f7ff73" stroke-opacity=".729" stroke-width="1"/></g><g shape-rendering="crispEdges"><title>2025-07-06: 65 contributions | active days: 5 | peak day: 36</title><polygon fill="#8fff00" points="204.5,180.43835616438355 206.5,178.43835616438355 206.5,214.43835616438355 204.5,216.43835616438355" opacity=".329"/><rect width="7" height="36" x="197.5" y="180.438" fill="url(#barGradient)" opacity=".53" rx="0"/><polygon fill="#f7ff73" points="197.5,180.43835616438355 204.5,180.43835616438355 206.5,178.43835616438355 199.5,178.43835616438355" opacity=".71"/><line x1="199.5" x2="206.5" y1="178.438" y2="178.438" stroke="#f7ff73" stroke-opacity=".75" stroke-width="1"/></g><g shape-rendering="crispEdges"><title>2025-07-13: 0 contributions | active days: 0 | peak day: 0</title><polygon fill="#8fff00" points="217.5,212.5 219.5,210.5 219.5,214.5 217.5,216.5" opacity=".236"/><rect width="7" height="4" x="210.5" y="212.5" fill="url(#barGradient)" opacity=".38" rx="0"/><polygon fill="#f7ff73" points="210.5,212.5 217.5,212.5 219.5,210.5 212.5,210.5" opacity=".56"/><line x1="212.5" x2="219.5" y1="210.5" y2="210.5" stroke="#f7ff73" stroke-opacity=".6" stroke-width="1"/></g><g shape-rendering="crispEdges"><title>2025-07-20: 62 contributions | active days: 6 | peak day: 16</title><polygon fill="#8fff00" points="230.5,182.1027397260274 232.5,180.1027397260274 232.5,214.1027397260274 230.5,216.1027397260274" opacity=".342"/><rect width="7" height="34" x="223.5" y="182.103" fill="url(#barGradient)" opacity=".551" rx="0"/><polygon fill="#f7ff73" points="223.5,182.1027397260274 230.5,182.1027397260274 232.5,180.1027397260274 225.5,180.1027397260274" opacity=".731"/><line x1="225.5" x2="232.5" y1="180.103" y2="180.103" stroke="#f7ff73" stroke-opacity=".771" stroke-width="1"/></g><g shape-rendering="crispEdges"><title>2025-07-27: 94 contributions | active days: 5 | peak day: 30</title><polygon fill="#8fff00" points="243.5,164.34931506849315 245.5,162.34931506849315 245.5,214.34931506849315 243.5,216.34931506849315" opacity=".368"/><rect width="7" height="52" x="236.5" y="164.349" fill="url(#barGradient)" opacity=".594" rx="0"/><polygon fill="#f7ff73" points="236.5,164.34931506849315 243.5,164.34931506849315 245.5,162.34931506849315 238.5,162.34931506849315" opacity=".774"/><line x1="238.5" x2="245.5" y1="162.349" y2="162.349" stroke="#f7ff73" stroke-opacity=".814" stroke-width="1"/></g><g shape-rendering="crispEdges"><title>2025-08-03: 73 contributions | active days: 6 | peak day: 26</title><polygon fill="#8fff00" points="256.5,176 258.5,174 258.5,214 256.5,216" opacity=".342"/><rect width="7" height="40" x="249.5" y="176" fill="url(#barGradient)" opacity=".551" rx="0"/><polygon fill="#f7ff73" points="249.5,176 256.5,176 258.5,174 251.5,174" opacity=".731"/><line x1="251.5" x2="258.5" y1="174" y2="174" stroke="#f7ff73" stroke-opacity=".771" stroke-width="1"/></g><g shape-rendering="crispEdges"><title>2025-08-10: 155 contributions | active days: 6 | peak day: 49</title><polygon fill="#8fff00" points="269.5,130.5068493150685 271.5,128.5068493150685 271.5,213.5068493150685 269.5,215.5068493150685" opacity=".435"/><rect width="7" height="85" x="262.5" y="130.507" fill="url(#barGradient)" opacity=".701" rx="0"/><polygon fill="#f7ff73" points="262.5,130.5068493150685 269.5,130.5068493150685 271.5,128.5068493150685 264.5,128.5068493150685" opacity=".881"/><line x1="264.5" x2="271.5" y1="128.507" y2="128.507" stroke="#f7ff73" stroke-opacity=".921" stroke-width="1"/></g><g shape-rendering="crispEdges"><title>2025-08-17: 73 contributions | active days: 7 | peak day: 17</title><polygon fill="#8fff00" points="282.5,176 284.5,174 284.5,214 282.5,216" opacity=".368"/><rect width="7" height="40" x="275.5" y="176" fill="url(#barGradient)" opacity=".594" rx="0"/><polygon fill="#f7ff73" points="275.5,176 282.5,176 284.5,174 277.5,174" opacity=".774"/><line x1="277.5" x2="284.5" y1="174" y2="174" stroke="#f7ff73" stroke-opacity=".814" stroke-width="1"/></g><g shape-rendering="crispEdges"><title>2025-08-24: 69 contributions | active days: 6 | peak day: 17</title><polygon fill="#8fff00" points="295.5,178.21917808219177 297.5,176.21917808219177 297.5,214.21917808219177 295.5,216.21917808219177" opacity=".355"/><rect width="7" height="38" x="288.5" y="178.219" fill="url(#barGradient)" opacity=".573" rx="0"/><polygon fill="#f7ff73" points="288.5,178.21917808219177 295.5,178.21917808219177 297.5,176.21917808219177 290.5,176.21917808219177" opacity=".753"/><line x1="290.5" x2="297.5" y1="176.219" y2="176.219" stroke="#f7ff73" stroke-opacity=".793" stroke-width="1"/></g><g shape-rendering="crispEdges"><title>2025-08-31: 104 contributions | active days: 7 | peak day: 25</title><polygon fill="#8fff00" points="308.5,158.8013698630137 310.5,156.8013698630137 310.5,213.8013698630137 308.5,215.8013698630137" opacity=".368"/><rect width="7" height="57" x="301.5" y="158.801" fill="url(#barGradient)" opacity=".594" rx="0"/><polygon fill="#f7ff73" points="301.5,158.8013698630137 308.5,158.8013698630137 310.5,156.8013698630137 303.5,156.8013698630137" opacity=".774"/><line x1="303.5" x2="310.5" y1="156.801" y2="156.801" stroke="#f7ff73" stroke-opacity=".814" stroke-width="1"/></g><g shape-rendering="crispEdges"><title>2025-09-07: 28 contributions | active days: 4 | peak day: 9</title><polygon fill="#8fff00" points="321.5,200.96575342465752 323.5,198.96575342465752 323.5,213.96575342465752 321.5,215.96575342465752" opacity=".289"/><rect width="7" height="15" x="314.5" y="200.966" fill="url(#barGradient)" opacity=".466" rx="0"/><polygon fill="#f7ff73" points="314.5,200.96575342465752 321.5,200.96575342465752 323.5,198.96575342465752 316.5,198.96575342465752" opacity=".646"/><line x1="316.5" x2="323.5" y1="198.966" y2="198.966" stroke="#f7ff73" stroke-opacity=".686" stroke-width="1"/></g><g shape-rendering="crispEdges"><title>2025-09-14: 39 contributions | active days: 4 | peak day: 14</title><polygon fill="#8fff00" points="334.5,194.86301369863014 336.5,192.86301369863014 336.5,213.86301369863014 334.5,215.86301369863014" opacity=".315"/><rect width="7" height="21" x="327.5" y="194.863" fill="url(#barGradient)" opacity=".509" rx="0"/><polygon fill="#f7ff73" points="327.5,194.86301369863014 334.5,194.86301369863014 336.5,192.86301369863014 329.5,192.86301369863014" opacity=".689"/><line x1="329.5" x2="336.5" y1="192.863" y2="192.863" stroke="#f7ff73" stroke-opacity=".729" stroke-width="1"/></g><g shape-rendering="crispEdges"><title>2025-09-21: 46 contributions | active days: 4 | peak day: 15</title><polygon fill="#8fff00" points="347.5,190.97945205479454 349.5,188.97945205479454 349.5,213.97945205479454 347.5,215.97945205479454" opacity=".315"/><rect width="7" height="25" x="340.5" y="190.979" fill="url(#barGradient)" opacity=".509" rx="0"/><polygon fill="#f7ff73" points="340.5,190.97945205479454 347.5,190.97945205479454 349.5,188.97945205479454 342.5,188.97945205479454" opacity=".689"/><line x1="342.5" x2="349.5" y1="188.979" y2="188.979" stroke="#f7ff73" stroke-opacity=".729" stroke-width="1"/></g><g shape-rendering="crispEdges"><title>2025-09-28: 37 contributions | active days: 5 | peak day: 13</title><polygon fill="#8fff00" points="360.5,195.97260273972603 362.5,193.97260273972603 362.5,213.97260273972603 360.5,215.97260273972603" opacity=".302"/><rect width="7" height="20" x="353.5" y="195.973" fill="url(#barGradient)" opacity=".487" rx="0"/><polygon fill="#f7ff73" points="353.5,195.97260273972603 360.5,195.97260273972603 362.5,193.97260273972603 355.5,193.97260273972603" opacity=".667"/><line x1="355.5" x2="362.5" y1="193.973" y2="193.973" stroke="#f7ff73" stroke-opacity=".707" stroke-width="1"/></g><g shape-rendering="crispEdges"><title>2025-10-05: 26 contributions | active days: 4 | peak day: 14</title><polygon fill="#8fff00" points="373.5,202.07534246575344 375.5,200.07534246575344 375.5,214.07534246575344 373.5,216.07534246575344" opacity=".302"/><rect width="7" height="14" x="366.5" y="202.075" fill="url(#barGradient)" opacity=".487" rx="0"/><polygon fill="#f7ff73" points="366.5,202.07534246575344 373.5,202.07534246575344 375.5,200.07534246575344 368.5,200.07534246575344" opacity=".667"/><line x1="368.5" x2="375.5" y1="200.075" y2="200.075" stroke="#f7ff73" stroke-opacity=".707" stroke-width="1"/></g><g shape-rendering="crispEdges"><title>2025-10-12: 41 contributions | active days: 4 | peak day: 18</title><polygon fill="#8fff00" points="386.5,193.75342465753425 388.5,191.75342465753425 388.5,213.75342465753425 386.5,215.75342465753425" opacity=".302"/><rect width="7" height="22" x="379.5" y="193.753" fill="url(#barGradient)" opacity=".487" rx="0"/><polygon fill="#f7ff73" points="379.5,193.75342465753425 386.5,193.75342465753425 388.5,191.75342465753425 381.5,191.75342465753425" opacity=".667"/><line x1="381.5" x2="388.5" y1="191.753" y2="191.753" stroke="#f7ff73" stroke-opacity=".707" stroke-width="1"/></g><g shape-rendering="crispEdges"><title>2025-10-19: 73 contributions | active days: 5 | peak day: 21</title><polygon fill="#8fff00" points="399.5,176 401.5,174 401.5,214 399.5,216" opacity=".342"/><rect width="7" height="40" x="392.5" y="176" fill="url(#barGradient)" opacity=".551" rx="0"/><polygon fill="#f7ff73" points="392.5,176 399.5,176 401.5,174 394.5,174" opacity=".731"/><line x1="394.5" x2="401.5" y1="174" y2="174" stroke="#f7ff73" stroke-opacity=".771" stroke-width="1"/></g><g shape-rendering="crispEdges"><title>2025-10-26: 51 contributions | active days: 4 | peak day: 17</title><polygon fill="#8fff00" points="412.5,188.2054794520548 414.5,186.2054794520548 414.5,214.2054794520548 412.5,216.2054794520548" opacity=".315"/><rect width="7" height="28" x="405.5" y="188.205" fill="url(#barGradient)" opacity=".509" rx="0"/><polygon fill="#f7ff73" points="405.5,188.2054794520548 412.5,188.2054794520548 414.5,186.2054794520548 407.5,186.2054794520548" opacity=".689"/><line x1="407.5" x2="414.5" y1="186.205" y2="186.205" stroke="#f7ff73" stroke-opacity=".729" stroke-width="1"/></g><g shape-rendering="crispEdges"><title>2025-11-02: 75 contributions | active days: 7 | peak day: 22</title><polygon fill="#8fff00" points="425.5,174.8904109589041 427.5,172.8904109589041 427.5,213.8904109589041 425.5,215.8904109589041" opacity=".342"/><rect width="7" height="41" x="418.5" y="174.89" fill="url(#barGradient)" opacity=".551" rx="0"/><polygon fill="#f7ff73" points="418.5,174.8904109589041 425.5,174.8904109589041 427.5,172.8904109589041 420.5,172.8904109589041" opacity=".731"/><line x1="420.5" x2="427.5" y1="172.89" y2="172.89" stroke="#f7ff73" stroke-opacity=".771" stroke-width="1"/></g><g shape-rendering="crispEdges"><title>2025-11-09: 56 contributions | active days: 5 | peak day: 17</title><polygon fill="#8fff00" points="438.5,185.43150684931507 440.5,183.43150684931507 440.5,214.43150684931507 438.5,216.43150684931507" opacity=".315"/><rect width="7" height="31" x="431.5" y="185.432" fill="url(#barGradient)" opacity=".509" rx="0"/><polygon fill="#f7ff73" points="431.5,185.43150684931507 438.5,185.43150684931507 440.5,183.43150684931507 433.5,183.43150684931507" opacity=".689"/><line x1="433.5" x2="440.5" y1="183.432" y2="183.432" stroke="#f7ff73" stroke-opacity=".729" stroke-width="1"/></g><g shape-rendering="crispEdges"><title>2025-11-16: 62 contributions | active days: 6 | peak day: 18</title><polygon fill="#8fff00" points="451.5,182.1027397260274 453.5,180.1027397260274 453.5,214.1027397260274 451.5,216.1027397260274" opacity=".342"/><rect width="7" height="34" x="444.5" y="182.103" fill="url(#barGradient)" opacity=".551" rx="0"/><polygon fill="#f7ff73" points="444.5,182.1027397260274 451.5,182.1027397260274 453.5,180.1027397260274 446.5,180.1027397260274" opacity=".731"/><line x1="446.5" x2="453.5" y1="180.103" y2="180.103" stroke="#f7ff73" stroke-opacity=".771" stroke-width="1"/></g><g shape-rendering="crispEdges"><title>2025-11-23: 132 contributions | active days: 7 | peak day: 31</title><polygon fill="#8fff00" points="464.5,143.26712328767124 466.5,141.26712328767124 466.5,214.26712328767124 464.5,216.26712328767124" opacity=".435"/><rect width="7" height="73" x="457.5" y="143.267" fill="url(#barGradient)" opacity=".701" rx="0"/><polygon fill="#f7ff73" points="457.5,143.26712328767124 464.5,143.26712328767124 466.5,141.26712328767124 459.5,141.26712328767124" opacity=".881"/><line x1="459.5" x2="466.5" y1="141.267" y2="141.267" stroke="#f7ff73" stroke-opacity=".921" stroke-width="1"/></g><g shape-rendering="crispEdges"><title>2025-11-30: 119 contributions | active days: 7 | peak day: 29</title><polygon fill="#8fff00" points="477.5,150.47945205479454 479.5,148.47945205479454 479.5,214.47945205479454 477.5,216.47945205479454" opacity=".408"/><rect width="7" height="66" x="470.5" y="150.479" fill="url(#barGradient)" opacity=".659" rx="0"/><polygon fill="#f7ff73" points="470.5,150.47945205479454 477.5,150.47945205479454 479.5,148.47945205479454 472.5,148.47945205479454" opacity=".839"/><line x1="472.5" x2="479.5" y1="148.479" y2="148.479" stroke="#f7ff73" stroke-opacity=".879" stroke-width="1"/></g><g shape-rendering="crispEdges"><title>2025-12-07: 52 contributions | active days: 5 | peak day: 18</title><polygon fill="#8fff00" points="490.5,187.65068493150685 492.5,185.65068493150685 492.5,213.65068493150685 490.5,215.65068493150685" opacity=".329"/><rect width="7" height="28" x="483.5" y="187.651" fill="url(#barGradient)" opacity=".53" rx="0"/><polygon fill="#f7ff73" points="483.5,187.65068493150685 490.5,187.65068493150685 492.5,185.65068493150685 485.5,185.65068493150685" opacity=".71"/><line x1="485.5" x2="492.5" y1="185.651" y2="185.651" stroke="#f7ff73" stroke-opacity=".75" stroke-width="1"/></g><g shape-rendering="crispEdges"><title>2025-12-14: 54 contributions | active days: 6 | peak day: 15</title><polygon fill="#8fff00" points="503.5,186.54109589041096 505.5,184.54109589041096 505.5,213.54109589041096 503.5,215.54109589041096" opacity=".342"/><rect width="7" height="29" x="496.5" y="186.541" fill="url(#barGradient)" opacity=".551" rx="0"/><polygon fill="#f7ff73" points="496.5,186.54109589041096 503.5,186.54109589041096 505.5,184.54109589041096 498.5,184.54109589041096" opacity=".731"/><line x1="498.5" x2="505.5" y1="184.541" y2="184.541" stroke="#f7ff73" stroke-opacity=".771" stroke-width="1"/></g><g shape-rendering="crispEdges"><title>2025-12-21: 92 contributions | active days: 7 | peak day: 19</title><polygon fill="#8fff00" points="516.5,165.45890410958904 518.5,163.45890410958904 518.5,214.45890410958904 516.5,216.45890410958904" opacity=".382"/><rect width="7" height="51" x="509.5" y="165.459" fill="url(#barGradient)" opacity=".616" rx="0"/><polygon fill="#f7ff73" points="509.5,165.45890410958904 516.5,165.45890410958904 518.5,163.45890410958904 511.5,163.45890410958904" opacity=".796"/><line x1="511.5" x2="518.5" y1="163.459" y2="163.459" stroke="#f7ff73" stroke-opacity=".836" stroke-width="1"/></g><g shape-rendering="crispEdges"><title>2025-12-28: 69 contributions | active days: 6 | peak day: 17</title><polygon fill="#8fff00" points="529.5,178.21917808219177 531.5,176.21917808219177 531.5,214.21917808219177 529.5,216.21917808219177" opacity=".355"/><rect width="7" height="38" x="522.5" y="178.219" fill="url(#barGradient)" opacity=".573" rx="0"/><polygon fill="#f7ff73" points="522.5,178.21917808219177 529.5,178.21917808219177 531.5,176.21917808219177 524.5,176.21917808219177" opacity=".753"/><line x1="524.5" x2="531.5" y1="176.219" y2="176.219" stroke="#f7ff73" stroke-opacity=".793" stroke-width="1"/></g><g shape-rendering="crispEdges"><title>2026-01-04: 27 contributions | active days: 3 | peak day: 14</title><polygon fill="#8fff00" points="542.5,201.5205479452055 544.5,199.5205479452055 544.5,213.5205479452055 542.5,215.5205479452055" opacity=".289"/><rect width="7" height="14" x="535.5" y="201.521" fill="url(#barGradient)" opacity=".466" rx="0"/><polygon fill="#f7ff73" points="535.5,201.5205479452055 542.5,201.5205479452055 544.5,199.5205479452055 537.5,199.5205479452055" opacity=".646"/><line x1="537.5" x2="544.5" y1="199.521" y2="199.521" stroke="#f7ff73" stroke-opacity=".686" stroke-width="1"/></g><g shape-rendering="crispEdges"><title>2026-01-11: 88 contributions | active days: 6 | peak day: 18</title><polygon fill="#8fff00" points="555.5,167.67808219178082 557.5,165.67808219178082 557.5,213.67808219178082 555.5,215.67808219178082" opacity=".382"/><rect width="7" height="48" x="548.5" y="167.678" fill="url(#barGradient)" opacity=".616" rx="0"/><polygon fill="#f7ff73" points="548.5,167.67808219178082 555.5,167.67808219178082 557.5,165.67808219178082 550.5,165.67808219178082" opacity=".796"/><line x1="550.5" x2="557.5" y1="165.678" y2="165.678" stroke="#f7ff73" stroke-opacity=".836" stroke-width="1"/></g><g shape-rendering="crispEdges"><title>2026-01-18: 78 contributions | active days: 7 | peak day: 18</title><polygon fill="#8fff00" points="568.5,173.22602739726028 570.5,171.22602739726028 570.5,214.22602739726028 568.5,216.22602739726028" opacity=".355"/><rect width="7" height="43" x="561.5" y="173.226" fill="url(#barGradient)" opacity=".573" rx="0"/><polygon fill="#f7ff73" points="561.5,173.22602739726028 568.5,173.22602739726028 570.5,171.22602739726028 563.5,171.22602739726028" opacity=".753"/><line x1="563.5" x2="570.5" y1="171.226" y2="171.226" stroke="#f7ff73" stroke-opacity=".793" stroke-width="1"/></g><g shape-rendering="crispEdges"><title>2026-01-25: 35 contributions | active days: 4 | peak day: 12</title><polygon fill="#8fff00" points="581.5,197.08219178082192 583.5,195.08219178082192 583.5,214.08219178082192 581.5,216.08219178082192" opacity=".289"/><rect width="7" height="19" x="574.5" y="197.082" fill="url(#barGradient)" opacity=".466" rx="0"/><polygon fill="#f7ff73" points="574.5,197.08219178082192 581.5,197.08219178082192 583.5,195.08219178082192 576.5,195.08219178082192" opacity=".646"/><line x1="576.5" x2="583.5" y1="195.082" y2="195.082" stroke="#f7ff73" stroke-opacity=".686" stroke-width="1"/></g><g shape-rendering="crispEdges"><title>2026-02-01: 32 contributions | active days: 4 | peak day: 16</title><polygon fill="#8fff00" points="594.5,198.74657534246575 596.5,196.74657534246575 596.5,213.74657534246575 594.5,215.74657534246575" opacity=".302"/><rect width="7" height="17" x="587.5" y="198.747" fill="url(#barGradient)" opacity=".487" rx="0"/><polygon fill="#f7ff73" points="587.5,198.74657534246575 594.5,198.74657534246575 596.5,196.74657534246575 589.5,196.74657534246575" opacity=".667"/><line x1="589.5" x2="596.5" y1="196.747" y2="196.747" stroke="#f7ff73" stroke-opacity=".707" stroke-width="1"/></g><g shape-rendering="crispEdges"><title>2026-02-08: 71 contributions | active days: 7 | peak day: 18</title><polygon fill="#8fff00" points="607.5,177.1095890410959 609.5,175.1095890410959 609.5,214.1095890410959 607.5,216.1095890410959" opacity=".368"/><rect width="7" height="39" x="600.5" y="177.11" fill="url(#barGradient)" opacity=".594" rx="0"/><polygon fill="#f7ff73" points="600.5,177.1095890410959 607.5,177.1095890410959 609.5,175.1095890410959 602.5,175.1095890410959" opacity=".774"/><line x1="602.5" x2="609.5" y1="175.11" y2="175.11" stroke="#f7ff73" stroke-opacity=".814" stroke-width="1"/></g><g shape-rendering="crispEdges"><title>2026-02-15: 138 contributions | active days: 7 | peak day: 41</title><polygon fill="#8fff00" points="620.5,139.93835616438355 622.5,137.93835616438355 622.5,213.93835616438355 620.5,215.93835616438355" opacity=".408"/><rect width="7" height="76" x="613.5" y="139.938" fill="url(#barGradient)" opacity=".659" rx="0"/><polygon fill="#f7ff73" points="613.5,139.93835616438355 620.5,139.93835616438355 622.5,137.93835616438355 615.5,137.93835616438355" opacity=".839"/><line x1="615.5" x2="622.5" y1="137.938" y2="137.938" stroke="#f7ff73" stroke-opacity=".879" stroke-width="1"/></g><g shape-rendering="crispEdges"><title>2026-02-22: 136 contributions | active days: 7 | peak day: 41</title><polygon fill="#8fff00" points="633.5,141.04794520547944 635.5,139.04794520547944 635.5,214.04794520547944 633.5,216.04794520547944" opacity=".395"/><rect width="7" height="75" x="626.5" y="141.048" fill="url(#barGradient)" opacity=".637" rx="0"/><polygon fill="#f7ff73" points="626.5,141.04794520547944 633.5,141.04794520547944 635.5,139.04794520547944 628.5,139.04794520547944" opacity=".817"/><line x1="628.5" x2="635.5" y1="139.048" y2="139.048" stroke="#f7ff73" stroke-opacity=".857" stroke-width="1"/></g><g shape-rendering="crispEdges"><title>2026-03-01: 260 contributions | active days: 7 | peak day: 77</title><polygon fill="#8fff00" points="646.5,72.25342465753425 648.5,70.25342465753425 648.5,214.25342465753425 646.5,216.25342465753425" opacity=".475"/><rect width="7" height="144" x="639.5" y="72.253" fill="url(#barGradient)" opacity=".766" rx="0"/><polygon fill="#f7ff73" points="639.5,72.25342465753425 646.5,72.25342465753425 648.5,70.25342465753425 641.5,70.25342465753425" opacity=".946"/><line x1="641.5" x2="648.5" y1="70.253" y2="70.253" stroke="#f7ff73" stroke-opacity=".98" stroke-width="1"/></g><g shape-rendering="crispEdges"><title>2026-03-08: 292 contributions | active days: 7 | peak day: 65</title><polygon fill="#8fff00" points="659.5,54.5 661.5,52.5 661.5,214.5 659.5,216.5" opacity=".541"/><rect width="7" height="162" x="652.5" y="54.5" fill="url(#barGradient)" opacity=".873" rx="0"/><polygon fill="#f7ff73" points="652.5,54.5 659.5,54.5 661.5,52.5 654.5,52.5" opacity=".97"/><line x1="654.5" x2="661.5" y1="52.5" y2="52.5" stroke="#f7ff73" stroke-opacity=".98" stroke-width="1"/></g><g shape-rendering="crispEdges"><title>2026-03-15: 236 contributions | active days: 7 | peak day: 65</title><polygon fill="#8fff00" points="672.5,85.56849315068493 674.5,83.56849315068493 674.5,213.56849315068493 672.5,215.56849315068493" opacity=".501"/><rect width="7" height="130" x="665.5" y="85.568" fill="url(#barGradient)" opacity=".809" rx="0"/><polygon fill="#f7ff73" points="665.5,85.56849315068493 672.5,85.56849315068493 674.5,83.56849315068493 667.5,83.56849315068493" opacity=".97"/><line x1="667.5" x2="674.5" y1="83.568" y2="83.568" stroke="#f7ff73" stroke-opacity=".98" stroke-width="1"/></g><g shape-rendering="crispEdges"><title>2026-03-22: 199 contributions | active days: 7 | peak day: 53</title><polygon fill="#8fff00" points="685.5,106.09589041095892 687.5,104.09589041095892 687.5,214.09589041095893 685.5,216.09589041095893" opacity=".475"/><rect width="7" height="110" x="678.5" y="106.096" fill="url(#barGradient)" opacity=".766" rx="0"/><polygon fill="#f7ff73" points="678.5,106.09589041095892 685.5,106.09589041095892 687.5,104.09589041095892 680.5,104.09589041095892" opacity=".946"/><line x1="680.5" x2="687.5" y1="104.096" y2="104.096" stroke="#f7ff73" stroke-opacity=".98" stroke-width="1"/></g><g shape-rendering="crispEdges"><title>2026-03-29: 224 contributions | active days: 7 | peak day: 52</title><polygon fill="#8fff00" points="698.5,92.22602739726028 700.5,90.22602739726028 700.5,214.22602739726028 698.5,216.22602739726028" opacity=".488"/><rect width="7" height="124" x="691.5" y="92.226" fill="url(#barGradient)" opacity=".787" rx="0"/><polygon fill="#f7ff73" points="691.5,92.22602739726028 698.5,92.22602739726028 700.5,90.22602739726028 693.5,90.22602739726028" opacity=".967"/><line x1="693.5" x2="700.5" y1="90.226" y2="90.226" stroke="#f7ff73" stroke-opacity=".98" stroke-width="1"/></g><g shape-rendering="crispEdges"><title>2026-04-05: 75 contributions | active days: 2 | peak day: 39</title><polygon fill="#8fff00" points="711.5,174.8904109589041 713.5,172.8904109589041 713.5,213.8904109589041 711.5,215.8904109589041" opacity=".515"/><rect width="7" height="41" x="704.5" y="174.89" fill="url(#barGradient)" opacity=".83" rx="0"/><polygon fill="#f7ff73" points="704.5,174.8904109589041 711.5,174.8904109589041 713.5,172.8904109589041 706.5,172.8904109589041" opacity=".97"/><line x1="706.5" x2="713.5" y1="172.89" y2="172.89" stroke="#f7ff73" stroke-opacity=".98" stroke-width="1"/></g><line x1="32.2" x2="32.2" y1="210.807" y2="211.507" stroke="#f7ff73" stroke-opacity=".143" stroke-width="1" shape-rendering="crispEdges"/><line x1="71.2" x2="71.2" y1="211.8" y2="212.5" stroke="#f7ff73" stroke-opacity=".143" stroke-width="1" shape-rendering="crispEdges"/><line x1="110.2" x2="110.2" y1="210.252" y2="210.952" stroke="#f7ff73" stroke-opacity=".143" stroke-width="1" shape-rendering="crispEdges"/><line x1="149.2" x2="149.2" y1="211.8" y2="212.5" stroke="#f7ff73" stroke-opacity=".143" stroke-width="1" shape-rendering="crispEdges"/><line x1="188.2" x2="188.2" y1="187.505" y2="188.205" stroke="#f7ff73" stroke-opacity=".143" stroke-width="1" shape-rendering="crispEdges"/><line x1="227.2" x2="227.2" y1="181.403" y2="182.103" stroke="#f7ff73" stroke-opacity=".143" stroke-width="1" shape-rendering="crispEdges"/><line x1="266.2" x2="266.2" y1="129.807" y2="130.507" stroke="#f7ff73" stroke-opacity=".143" stroke-width="1" shape-rendering="crispEdges"/><line x1="305.2" x2="305.2" y1="158.101" y2="158.801" stroke="#f7ff73" stroke-opacity=".143" stroke-width="1" shape-rendering="crispEdges"/><line x1="344.2" x2="344.2" y1="190.279" y2="190.979" stroke="#f7ff73" stroke-opacity=".143" stroke-width="1" shape-rendering="crispEdges"/><line x1="383.2" x2="383.2" y1="193.053" y2="193.753" stroke="#f7ff73" stroke-opacity=".143" stroke-width="1" shape-rendering="crispEdges"/><line x1="422.2" x2="422.2" y1="174.19" y2="174.89" stroke="#f7ff73" stroke-opacity=".143" stroke-width="1" shape-rendering="crispEdges"/><line x1="461.2" x2="461.2" y1="142.567" y2="143.267" stroke="#f7ff73" stroke-opacity=".143" stroke-width="1" shape-rendering="crispEdges"/><line x1="500.2" x2="500.2" y1="185.841" y2="186.541" stroke="#f7ff73" stroke-opacity=".143" stroke-width="1" shape-rendering="crispEdges"/><line x1="539.2" x2="539.2" y1="200.821" y2="201.521" stroke="#f7ff73" stroke-opacity=".143" stroke-width="1" shape-rendering="crispEdges"/><line x1="578.2" x2="578.2" y1="196.382" y2="197.082" stroke="#f7ff73" stroke-opacity=".143" stroke-width="1" shape-rendering="crispEdges"/><line x1="617.2" x2="617.2" y1="139.238" y2="139.938" stroke="#f7ff73" stroke-opacity=".143" stroke-width="1" shape-rendering="crispEdges"/><line x1="656.2" x2="656.2" y1="53.8" y2="54.5" stroke="#f7ff73" stroke-opacity=".143" stroke-width="1" shape-rendering="crispEdges"/><line x1="695.2" x2="695.2" y1="91.526" y2="92.226" stroke="#f7ff73" stroke-opacity=".143" stroke-width="1" shape-rendering="crispEdges"/><path fill="none" stroke="#8fff00" stroke-linecap="square" stroke-linejoin="miter" stroke-width="1.58" d="M32.2 210.407h13v.993h39v-8.205h13v8.205h13v-1.548h13v1.548h13v-3.767h13v3.767h39v-24.295h13v-7.767h13V211.4h13v-30.397h13v-17.754h13V174.9h13v-45.493h13V174.9h13v2.22h13V157.7h13v42.165h13v-6.103h13v-3.884h13v4.994h13v6.102h13v-8.322h13V174.9h13v12.205h13V173.79h13v10.542h13v-3.33h13v-38.835h13v7.212h13v37.172h13v-1.11h13V164.36h13v12.76h13v23.302h13v-33.843h13v5.548h13v23.856h13v1.665h13V176.01h13v-37.172h13v1.11h13V71.153h13V53.4h13v31.068h13v20.528h13v-13.87h13v82.664" opacity=".95" shape-rendering="crispEdges"/><path fill="none" stroke="#f7ff73" stroke-linecap="square" stroke-linejoin="miter" stroke-width="3.7" d="M32.2 210.407h13v.993h39v-8.205h13v8.205h13v-1.548h13v1.548h13v-3.767h13v3.767h39v-24.295h13v-7.767h13V211.4h13v-30.397h13v-17.754h13V174.9h13v-45.493h13V174.9h13v2.22h13V157.7h13v42.165h13v-6.103h13v-3.884h13v4.994h13v6.102h13v-8.322h13V174.9h13v12.205h13V173.79h13v10.542h13v-3.33h13v-38.835h13v7.212h13v37.172h13v-1.11h13V164.36h13v12.76h13v23.302h13v-33.843h13v5.548h13v23.856h13v1.665h13V176.01h13v-37.172h13v1.11h13V71.153h13V53.4h13v31.068h13v20.528h13v-13.87h13v82.664" filter="url(#phosphorGlow)" opacity=".252"><animate attributeName="opacity" dur="3.75s" repeatCount="indefinite" values="0.252;0.394;0.252"/></path><path fill="none" stroke="#f7ff73" stroke-dasharray="226 774" stroke-linecap="square" stroke-linejoin="miter" stroke-width="3.78" d="M32.2 210.407h13v.993h39v-8.205h13v8.205h13v-1.548h13v1.548h13v-3.767h13v3.767h39v-24.295h13v-7.767h13V211.4h13v-30.397h13v-17.754h13V174.9h13v-45.493h13V174.9h13v2.22h13V157.7h13v42.165h13v-6.103h13v-3.884h13v4.994h13v6.102h13v-8.322h13V174.9h13v12.205h13V173.79h13v10.542h13v-3.33h13v-38.835h13v7.212h13v37.172h13v-1.11h13V164.36h13v12.76h13v23.302h13v-33.843h13v5.548h13v23.856h13v1.665h13V176.01h13v-37.172h13v1.11h13V71.153h13V53.4h13v31.068h13v20.528h13v-13.87h13v82.664" filter="url(#phosphorGlow)" opacity=".245" pathLength="1000"><animate attributeName="stroke-dashoffset" dur="3.07s" repeatCount="indefinite" values="1180;180"/></path><path fill="none" stroke="#f7ff73" stroke-dasharray="96 904" stroke-linecap="square" stroke-linejoin="miter" stroke-width="2.6" d="M32.2 210.407h13v.993h39v-8.205h13v8.205h13v-1.548h13v1.548h13v-3.767h13v3.767h39v-24.295h13v-7.767h13V211.4h13v-30.397h13v-17.754h13V174.9h13v-45.493h13V174.9h13v2.22h13V157.7h13v42.165h13v-6.103h13v-3.884h13v4.994h13v6.102h13v-8.322h13V174.9h13v12.205h13V173.79h13v10.542h13v-3.33h13v-38.835h13v7.212h13v37.172h13v-1.11h13V164.36h13v12.76h13v23.302h13v-33.843h13v5.548h13v23.856h13v1.665h13V176.01h13v-37.172h13v1.11h13V71.153h13V53.4h13v31.068h13v20.528h13v-13.87h13v82.664" opacity=".92" pathLength="1000" shape-rendering="crispEdges"><animate attributeName="stroke-dashoffset" dur="2.60s" repeatCount="indefinite" values="1000;0"/></path><line x1="12" x2="12" y1="36" y2="226" stroke="#f7ff73" stroke-opacity=".33" stroke-width="3.3" filter="url(#phosphorGlow)"><animate attributeName="x1" dur="2.60s" repeatCount="indefinite" values="12;733"/><animate attributeName="x2" dur="2.60s" repeatCount="indefinite" values="12;733"/></line><line x1="12" x2="12" y1="36" y2="226" stroke="#f7ff73" stroke-opacity=".23" stroke-width="1.1" shape-rendering="crispEdges"><animate attributeName="x1" dur="2.60s" repeatCount="indefinite" values="12;733"/><animate attributeName="x2" dur="2.60s" repeatCount="indefinite" values="12;733"/></line><text x="114" y="264" style="font:700 8px ui-monospace,SFMono-Regular,Menlo,Monaco,Consolas,&quot;Liberation Mono&quot;,monospace;fill:#b8db89;letter-spacing:.08em;opacity:.9" text-anchor="middle">LANGS</text><circle cx="114" cy="310" r="27" fill="none" stroke="#b8db89" stroke-opacity=".18" stroke-width="10"/><g><circle cx="114" cy="310" r="27" fill="none" stroke="#3178c6" stroke-dasharray="107.36 62.29" stroke-dashoffset="0" stroke-linecap="butt" stroke-width="10" transform="rotate(-90 114 310)"><animate fill="freeze" attributeName="stroke-dasharray" begin="0.00s" dur="0.95s" values="0 169.65;107.36 62.29"/></circle><circle cx="114" cy="310" r="27" fill="none" stroke="#41b883" stroke-dasharray="27.62 142.03" stroke-dashoffset="-107.36" stroke-linecap="butt" stroke-width="10" transform="rotate(-90 114 310)"><animate fill="freeze" attributeName="stroke-dasharray" begin="0.12s" dur="0.95s" values="0 169.65;27.62 142.03"/></circle><circle cx="114" cy="310" r="27" fill="none" stroke="#f1e05a" stroke-dasharray="18.45 151.19" stroke-dashoffset="-134.97" stroke-linecap="butt" stroke-width="10" transform="rotate(-90 114 310)"><animate fill="freeze" attributeName="stroke-dasharray" begin="0.24s" dur="0.95s" values="0 169.65;18.45 151.19"/></circle><circle cx="114" cy="310" r="27" fill="none" stroke="#ff3e00" stroke-dasharray="7.24 162.41" stroke-dashoffset="-153.43" stroke-linecap="butt" stroke-width="10" transform="rotate(-90 114 310)"><animate fill="freeze" attributeName="stroke-dasharray" begin="0.36s" dur="0.95s" values="0 169.65;7.24 162.41"/></circle><circle cx="114" cy="310" r="27" fill="none" stroke="#8b949e" stroke-dasharray="8.98 160.66" stroke-dashoffset="-160.66" stroke-linecap="butt" stroke-width="10" transform="rotate(-90 114 310)"><animate fill="freeze" attributeName="stroke-dasharray" begin="0.48s" dur="0.95s" values="0 169.65;8.98 160.66"/></circle><animateTransform attributeName="transform" dur="3.36s" repeatCount="indefinite" type="rotate" values="0 114 310;360 114 310"/></g><circle cx="114" cy="310" r="22.3" fill="#081322" fill-opacity=".74"/><rect width="6" height="6" x="160" y="289" fill="#3178c6" rx="1"/><rect width="40" height="4" x="170" y="289" fill="#b8db89" fill-opacity=".18" rx="1.2"/><rect width="25" height="4" x="170" y="289" fill="#3178c6" fill-opacity=".9" rx="1.2"><animate fill="freeze" attributeName="width" begin="0.22s" dur="0.8s" values="0;25"/></rect><text x="213" y="294" class="dash-label">TYPESCRIPT 63%</text><rect width="6" height="6" x="160" y="299" fill="#41b883" rx="1"/><rect width="40" height="4" x="170" y="299" fill="#b8db89" fill-opacity=".18" rx="1.2"/><rect width="7" height="4" x="170" y="299" fill="#41b883" fill-opacity=".9" rx="1.2"><animate fill="freeze" attributeName="width" begin="0.34s" dur="0.8s" values="0;7"/></rect><text x="213" y="304" class="dash-label">VUE 16%</text><rect width="6" height="6" x="160" y="309" fill="#f1e05a" rx="1"/><rect width="40" height="4" x="170" y="309" fill="#b8db89" fill-opacity=".18" rx="1.2"/><rect width="4" height="4" x="170" y="309" fill="#f1e05a" fill-opacity=".9" rx="1.2"><animate fill="freeze" attributeName="width" begin="0.46s" dur="0.8s" values="0;4"/></rect><text x="213" y="314" class="dash-label">JAVASCRIPT 11%</text><rect width="6" height="6" x="160" y="319" fill="#ff3e00" rx="1"/><rect width="40" height="4" x="170" y="319" fill="#b8db89" fill-opacity=".18" rx="1.2"/><rect width="2" height="4" x="170" y="319" fill="#ff3e00" fill-opacity=".9" rx="1.2"><animate fill="freeze" attributeName="width" begin="0.58s" dur="0.8s" values="0;2"/></rect><text x="213" y="324" class="dash-label">SVELTE 4%</text><rect width="6" height="6" x="160" y="329" fill="#8b949e" rx="1"/><rect width="40" height="4" x="170" y="329" fill="#b8db89" fill-opacity=".18" rx="1.2"/><rect width="2" height="4" x="170" y="329" fill="#8b949e" fill-opacity=".9" rx="1.2"><animate fill="freeze" attributeName="width" begin="0.70s" dur="0.8s" values="0;2"/></rect><text x="213" y="334" class="dash-label">OTHER 5%</text><text x="605" y="248" class="dash-label" text-anchor="middle">TOTAL 749</text><polygon fill="none" stroke="#b8db89" stroke-opacity=".18" stroke-width="1" points="597.00,310.00 605.00,302.00 613.00,310.00 605.00,318.00"/><polygon fill="none" stroke="#b8db89" stroke-opacity=".18" stroke-width="1" points="589.00,310.00 605.00,294.00 621.00,310.00 605.00,326.00"/><polygon fill="none" stroke="#b8db89" stroke-opacity=".18" stroke-width="1" points="581.00,310.00 605.00,286.00 629.00,310.00 605.00,334.00"/><polygon fill="none" stroke="#b8db89" stroke-opacity=".18" stroke-width="1" points="573.00,310.00 605.00,278.00 637.00,310.00 605.00,342.00"/><polygon fill="none" stroke="#b8db89" stroke-opacity=".28" stroke-width="1" points="565.00,310.00 605.00,270.00 645.00,310.00 605.00,350.00"/><line x1="605" x2="565" y1="310" y2="310" stroke="#b8db89" stroke-opacity=".24" stroke-width="1"/><line x1="605" x2="605" y1="310" y2="270" stroke="#b8db89" stroke-opacity=".24" stroke-width="1"/><line x1="605" x2="645" y1="310" y2="310" stroke="#b8db89" stroke-opacity=".24" stroke-width="1"/><line x1="605" x2="605" y1="310" y2="350" stroke="#b8db89" stroke-opacity=".24" stroke-width="1"/><line x1="605" x2="605" y1="310" y2="270" stroke="#f7ff73" stroke-opacity=".22" stroke-width="1.15"><animateTransform attributeName="transform" dur="2.60s" repeatCount="indefinite" type="rotate" values="0 605 310;360 605 310"/></line><polygon fill="url(#areaGradient)" fill-opacity=".28" stroke="#8fff00" stroke-opacity=".95" stroke-width="1.6" points="565.00,310.00 605.00,280.71 627.74,310.00 605.00,333.49"><animate attributeName="points" dur="2.97s" repeatCount="indefinite" values="565.00,310.00 605.00,280.71 627.74,310.00 605.00,333.49;565.00,310.00 605.00,278.65 629.34,310.00 605.00,335.13;565.00,310.00 605.00,280.71 627.74,310.00 605.00,333.49;569.00,310.00 605.00,283.63 625.47,310.00 605.00,331.14;565.00,310.00 605.00,280.71 627.74,310.00 605.00,333.49"/></polygon><circle cx="565" cy="310" r="2.2" fill="#f7ff73" opacity=".92"><animate attributeName="r" dur="2.20s" repeatCount="indefinite" values="1.8;2.9;1.8"/></circle><circle cx="605" cy="280.71" r="2.2" fill="#f7ff73" opacity=".92"><animate attributeName="r" dur="2.55s" repeatCount="indefinite" values="1.8;2.9;1.8"/></circle><circle cx="627.74" cy="310" r="2.2" fill="#f7ff73" opacity=".92"><animate attributeName="r" dur="2.90s" repeatCount="indefinite" values="1.8;2.9;1.8"/></circle><circle cx="605" cy="333.49" r="2.2" fill="#f7ff73" opacity=".92"><animate attributeName="r" dur="3.25s" repeatCount="indefinite" values="1.8;2.9;1.8"/></circle><text x="553" y="310" class="dash-label" dominant-baseline="middle" text-anchor="end">COMMIT</text><text x="605" y="258" class="dash-label" dominant-baseline="middle" text-anchor="middle">PR</text><text x="657" y="310" class="dash-label" dominant-baseline="middle" text-anchor="start">ISSUE</text><text x="605" y="362" class="dash-label" dominant-baseline="middle" text-anchor="middle">REVIEW</text><text x="28" y="404" class="footer">USER: @stefashkaa</text><text x="366.5" y="404" class="footer" text-anchor="middle">CONTRIBUTIONS: 3773 | BEST WEEK: 292 | LAST WEEK: 75 |</text><text x="717" y="404" style="font:600 8.25px ui-monospace,SFMono-Regular,Menlo,Monaco,Consolas,&quot;Liberation Mono&quot;,monospace;fill:#b8db89;letter-spacing:.03em;opacity:.78" text-anchor="end">CREDITS: stefashkaa/github-profile-crt</text></svg>